<?xml version="1.0" encoding="UTF-8"?>
<!DOCTYPE svg PUBLIC "-//W3C//DTD SVG 1.1//EN" "http://www.w3.org/Graphics/SVG/1.1/DTD/svg11.dtd">
<svg xmlns="http://www.w3.org/2000/svg" version="1.1" width="547px" height="551px" style="shape-rendering:geometricPrecision; text-rendering:geometricPrecision; image-rendering:optimizeQuality; fill-rule:evenodd; clip-rule:evenodd" xmlns:xlink="http://www.w3.org/1999/xlink">
<g><path style="opacity:0.885" fill="#fdd604" d="M 248.5,11.5 C 351.701,6.35542 432.868,45.6888 492,129.5C 540.622,208.73 547.955,291.73 514,378.5C 470.278,471.805 397.112,524.639 294.5,537C 191.275,542.632 110.108,503.465 51,419.5C 2.37827,340.27 -4.95507,257.27 29,170.5C 72.9414,77.2687 146.108,24.2687 248.5,11.5 Z M 269.5,19.5 C 369.279,22.9034 444.445,67.2367 495,152.5C 531.106,222.624 535.439,294.624 508,368.5C 505.876,365.675 503.376,363.175 500.5,361C 494.669,357.919 489.002,354.585 483.5,351C 459.466,341.657 435.466,332.324 411.5,323C 409.999,321.748 408.332,320.748 406.5,320C 399,311.167 390.833,303 382,295.5C 378.768,290.212 374.935,285.378 370.5,281C 364.247,277.705 357.913,274.705 351.5,272C 356.104,267.397 359.938,262.23 363,256.5C 363.074,250.462 363.907,244.462 365.5,238.5C 365.327,236.962 364.994,235.462 364.5,234C 366.371,231.765 367.871,229.265 369,226.5C 370.901,218.934 373.068,211.434 375.5,204C 374.706,201.031 374.039,198.031 373.5,195C 375.906,188.28 375.906,181.78 373.5,175.5C 374.327,165.8 374.661,156.133 374.5,146.5C 373.109,141.389 371.442,136.389 369.5,131.5C 370.344,127.988 369.678,124.655 367.5,121.5C 368.562,118.897 368.728,116.23 368,113.5C 363.777,105.657 359.277,97.9899 354.5,90.5C 352.507,88.5014 350.173,87.0014 347.5,86C 345.953,83.2133 343.953,80.8799 341.5,79C 331.241,76.647 321.074,73.8136 311,70.5C 296.386,71.541 281.886,71.541 267.5,70.5C 261.146,66.855 255.48,67.355 250.5,72C 246.207,73.9308 241.874,75.7641 237.5,77.5C 232.972,75.7191 228.305,75.2191 223.5,76C 217.5,80 211.5,84 205.5,88C 202.583,89.5275 199.583,90.8608 196.5,92C 193.414,95.7565 189.748,98.7565 185.5,101C 180.305,106.859 175.138,112.692 170,118.5C 168.444,126.126 167.278,133.792 166.5,141.5C 168.318,151.075 170.985,160.409 174.5,169.5C 176.167,170.5 177.5,171.833 178.5,173.5C 165.332,182.164 161.165,194.164 166,209.5C 167.393,213.286 169.059,216.952 171,220.5C 174.405,223.122 178.239,224.455 182.5,224.5C 182.159,240.755 183.992,256.755 188,272.5C 191.033,279.888 194.033,287.221 197,294.5C 200.5,299.333 204.667,303.5 209.5,307C 206.5,311.333 202.833,315 198.5,318C 189.543,320.656 180.543,323.156 171.5,325.5C 167.191,324.535 162.857,324.369 158.5,325C 140.303,328.318 122.303,332.652 104.5,338C 98.874,343.75 95.2074,350.583 93.5,358.5C 89.6906,361.142 86.0239,363.975 82.5,367C 71.6126,377.887 60.7792,388.721 50,399.5C 18.7174,342.855 9.71736,282.855 23,219.5C 43.3474,137.614 91.5141,78.4473 167.5,42C 200.184,27.8993 234.184,20.3993 269.5,19.5 Z M 352.5,278.5 C 354.792,280.267 357.458,281.267 360.5,281.5C 361.209,282.404 362.209,282.737 363.5,282.5C 363.973,283.906 364.973,284.573 366.5,284.5C 370.66,288.843 374.327,293.509 377.5,298.5C 384.554,306.221 391.887,313.554 399.5,320.5C 399.5,321.833 400.167,322.5 401.5,322.5C 405.603,326.061 410.27,328.894 415.5,331C 439.247,339.301 462.58,348.467 485.5,358.5C 491.463,362.487 497.463,366.487 503.5,370.5C 503.5,371.5 503.5,372.5 503.5,373.5C 501.339,377.986 499.006,382.486 496.5,387C 496.728,387.399 497.062,387.565 497.5,387.5C 497.082,388.222 496.416,388.722 495.5,389C 496.815,390.395 496.481,391.395 494.5,392C 494.833,392.333 495.167,392.667 495.5,393C 493.95,395.029 492.617,397.196 491.5,399.5C 489.259,400.3 488.259,401.966 488.5,404.5C 443.031,477.769 376.198,518.769 288,527.5C 282.461,526.389 276.961,526.722 271.5,528.5C 258.793,527.864 246.126,526.698 233.5,525C 221.316,522.884 209.316,520.05 197.5,516.5C 196.22,515.069 194.553,514.402 192.5,514.5C 138.298,496.952 95.2983,464.619 63.5,417.5C 63.2624,415.596 62.2624,414.262 60.5,413.5C 56.9336,410.367 54.9336,406.367 54.5,401.5C 58.5259,397.805 62.5259,394.138 66.5,390.5C 69.1667,388.5 71.5,386.167 73.5,383.5C 77.1667,380.5 80.5,377.167 83.5,373.5C 84.8333,372.833 85.8333,371.833 86.5,370.5C 88.0269,370.573 89.0269,369.906 89.5,368.5C 90.8333,367.833 91.8333,366.833 92.5,365.5C 97.004,364.666 99.3373,362 99.5,357.5C 101.111,353.006 103.111,348.672 105.5,344.5C 106.5,344.167 107.167,343.5 107.5,342.5C 115.015,340.79 122.348,338.79 129.5,336.5C 137.346,335.471 145.013,334.138 152.5,332.5C 152.5,332.167 152.5,331.833 152.5,331.5C 156.185,330.996 159.851,330.33 163.5,329.5C 173.832,331.161 183.498,329.494 192.5,324.5C 195.839,324.11 199.173,323.61 202.5,323C 204.951,320.148 207.285,317.315 209.5,314.5C 210.167,314.5 210.5,314.167 210.5,313.5C 212.144,313.19 213.144,312.19 213.5,310.5C 214.434,309.432 214.768,308.099 214.5,306.5C 214.649,305.448 214.483,304.448 214,303.5C 209,299.833 204.667,295.5 201,290.5C 197.151,281.164 193.651,271.831 190.5,262.5C 188.613,248.408 187.28,234.408 186.5,220.5C 183.239,219.622 179.906,218.956 176.5,218.5C 173.576,213.705 171.243,208.705 169.5,203.5C 169.191,198.733 169.691,194.066 171,189.5C 173.722,185.348 176.888,181.681 180.5,178.5C 181.15,178.196 181.817,177.863 182.5,177.5C 184.62,172.639 183.453,168.973 179,166.5C 172.224,151.296 170.89,135.629 175,119.5C 177.479,116.931 180.146,114.598 183,112.5C 184.726,107.94 187.892,104.94 192.5,103.5C 194.927,100.131 197.927,97.4641 201.5,95.5C 205.505,94.5023 208.839,92.5023 211.5,89.5C 216.455,87.6847 220.788,84.8514 224.5,81C 228.936,80.4189 233.269,80.9189 237.5,82.5C 245.022,80.1501 252.188,77.1501 259,73.5C 261.851,74.0879 264.685,74.7545 267.5,75.5C 281.934,76.5644 296.434,76.5644 311,75.5C 320.749,78.8153 330.582,81.8153 340.5,84.5C 346.475,89.3142 351.642,94.9809 356,101.5C 358.517,106.676 361.017,111.843 363.5,117C 363.006,118.462 362.673,119.962 362.5,121.5C 363.902,125.699 364.735,130.033 365,134.5C 365.835,138.851 367.335,142.851 369.5,146.5C 369.576,156.128 369.242,165.628 368.5,175C 369.005,178.863 369.672,182.696 370.5,186.5C 367.873,192.344 367.873,198.177 370.5,204C 369.107,205.171 368.273,206.671 368,208.5C 366.371,214.093 365.038,219.76 364,225.5C 359.88,229.064 358.714,233.397 360.5,238.5C 358.772,242.608 358.439,246.774 359.5,251C 359,252.5 358.5,254 358,255.5C 355.385,259.783 352.385,263.783 349,267.5C 347.89,269.037 346.39,269.703 344.5,269.5C 344.661,274.664 347.328,277.664 352.5,278.5 Z"/></g>
<g><path style="opacity:0.706" fill="#b6a112" d="M 211.5,89.5 C 208.839,92.5023 205.505,94.5023 201.5,95.5C 204.494,93.0002 207.827,91.0002 211.5,89.5 Z"/></g>
<g><path style="opacity:0.627" fill="#bcac1b" d="M 180.5,178.5 C 176.888,181.681 173.722,185.348 171,189.5C 169.691,194.066 169.191,198.733 169.5,203.5C 166.387,192.168 170.054,183.835 180.5,178.5 Z"/></g>
<g><path style="opacity:0.604" fill="#b8a618" d="M 169.5,203.5 C 171.243,208.705 173.576,213.705 176.5,218.5C 174.112,217.781 172.612,216.115 172,213.5C 170.273,210.382 169.439,207.049 169.5,203.5 Z"/></g>
<g><path style="opacity:0.62" fill="#c2b11f" d="M 186.5,220.5 C 187.28,234.408 188.613,248.408 190.5,262.5C 188.982,259.466 188.149,256.133 188,252.5C 186.851,241.863 186.351,231.197 186.5,220.5 Z"/></g>
<g><path style="opacity:0.729" fill="#c4af15" d="M 190.5,262.5 C 193.651,271.831 197.151,281.164 201,290.5C 204.667,295.5 209,299.833 214,303.5C 214.483,304.448 214.649,305.448 214.5,306.5C 209.225,302.056 204.392,297.056 200,291.5C 197.615,285.062 194.948,278.728 192,272.5C 190.957,269.243 190.457,265.91 190.5,262.5 Z"/></g>
<g><path style="opacity:0.329" fill="#d4c881" d="M 352.5,278.5 C 355.542,278.733 358.208,279.733 360.5,281.5C 357.458,281.267 354.792,280.267 352.5,278.5 Z"/></g>
<g><path style="opacity:0.275" fill="#dad296" d="M 363.5,282.5 C 365.027,282.427 366.027,283.094 366.5,284.5C 364.973,284.573 363.973,283.906 363.5,282.5 Z"/></g>
<g><path style="opacity:0.694" fill="#d9cb66" d="M 366.5,284.5 C 369.056,285.543 371.223,287.21 373,289.5C 374.662,292.649 376.495,295.649 378.5,298.5C 378.167,298.5 377.833,298.5 377.5,298.5C 374.327,293.509 370.66,288.843 366.5,284.5 Z"/></g>
<g><path style="opacity:0.173" fill="#e9e4bc" d="M 213.5,310.5 C 213.144,312.19 212.144,313.19 210.5,313.5C 210.856,311.81 211.856,310.81 213.5,310.5 Z"/></g>
<g><path style="opacity:0.111" fill="#f5f0cc" d="M 377.5,298.5 C 377.833,298.5 378.167,298.5 378.5,298.5C 383.164,302.996 387.998,307.33 393,311.5C 395.41,314.397 397.577,317.397 399.5,320.5C 391.887,313.554 384.554,306.221 377.5,298.5 Z"/></g>
<g><path style="opacity:0.149" fill="#eaeac5" d="M 209.5,314.5 C 207.285,317.315 204.951,320.148 202.5,323C 199.173,323.61 195.839,324.11 192.5,324.5C 192.5,324.167 192.5,323.833 192.5,323.5C 195.487,323.002 198.487,322.502 201.5,322C 203.544,318.816 206.21,316.316 209.5,314.5 Z"/></g>
<g><path style="opacity:0.578" fill="#d1c44b" d="M 192.5,323.5 C 192.5,323.833 192.5,324.167 192.5,324.5C 183.498,329.494 173.832,331.161 163.5,329.5C 159.851,330.33 156.185,330.996 152.5,331.5C 155.293,329.864 158.96,328.864 163.5,328.5C 173.687,329.87 183.354,328.203 192.5,323.5 Z"/></g>
<g><path style="opacity:0.165" fill="#dee8ab" d="M 152.5,332.5 C 145.013,334.138 137.346,335.471 129.5,336.5C 129.918,335.778 130.584,335.278 131.5,335C 138.456,333.729 145.456,332.896 152.5,332.5 Z"/></g>
<g><path style="opacity:0.557" fill="#d8cb65" d="M 401.5,322.5 C 406.447,324.973 411.447,327.473 416.5,330C 437.578,337.804 458.578,345.804 479.5,354C 481.747,355.277 483.747,356.777 485.5,358.5C 462.58,348.467 439.247,339.301 415.5,331C 410.27,328.894 405.603,326.061 401.5,322.5 Z"/></g>
<g><path style="opacity:0.506" fill="#d7cc64" d="M 129.5,336.5 C 122.348,338.79 115.015,340.79 107.5,342.5C 108.347,341.034 109.68,340.2 111.5,340C 117.453,338.511 123.453,337.344 129.5,336.5 Z"/></g>
<g><path style="opacity:0.506" fill="#d6cb64" d="M 105.5,344.5 C 103.111,348.672 101.111,353.006 99.5,357.5C 99.1667,357.5 98.8333,357.5 98.5,357.5C 99.7563,354.233 100.923,350.899 102,347.5C 103.039,346.29 104.206,345.29 105.5,344.5 Z"/></g>
<g><path style="opacity:0.12" fill="#f5f2d7" d="M 98.5,357.5 C 98.8333,357.5 99.1667,357.5 99.5,357.5C 99.3373,362 97.004,364.666 92.5,365.5C 93.976,363.5 95.8094,361.833 98,360.5C 98.4828,359.552 98.6495,358.552 98.5,357.5 Z"/></g>
<g><path style="opacity:0.38" fill="#e7de9a" d="M 485.5,358.5 C 490.048,360.107 494.381,362.274 498.5,365C 500.424,366.75 502.091,368.583 503.5,370.5C 497.463,366.487 491.463,362.487 485.5,358.5 Z"/></g>
<g><path style="opacity:0.207" fill="#e2e2b3" d="M 89.5,368.5 C 89.0269,369.906 88.0269,370.573 86.5,370.5C 86.9731,369.094 87.9731,368.427 89.5,368.5 Z"/></g>
<g><path style="opacity:0.012" fill="#fbfcfa" d="M 503.5,373.5 C 502.578,378.673 500.578,383.34 497.5,387.5C 497.062,387.565 496.728,387.399 496.5,387C 499.006,382.486 501.339,377.986 503.5,373.5 Z"/></g>
<g><path style="opacity:0.208" fill="#e3e3b4" d="M 83.5,373.5 C 80.5,377.167 77.1667,380.5 73.5,383.5C 75.8333,379.167 79.1667,375.833 83.5,373.5 Z"/></g>
<g><path style="opacity:0.251" fill="#dedb9f" d="M 66.5,390.5 C 62.5259,394.138 58.5259,397.805 54.5,401.5C 57.2227,396.444 61.2227,392.777 66.5,390.5 Z"/></g>
<g><path style="opacity:0.008" fill="#f7f9f9" d="M 491.5,399.5 C 490.737,401.368 489.737,403.035 488.5,404.5C 488.259,401.966 489.259,400.3 491.5,399.5 Z"/></g>
<g><path style="opacity:0.318" fill="#d8d8a5" d="M 60.5,413.5 C 62.2624,414.262 63.2624,415.596 63.5,417.5C 61.7376,416.738 60.7376,415.404 60.5,413.5 Z"/></g>
<g><path style="opacity:0.235" fill="#cecc94" d="M 192.5,514.5 C 194.553,514.402 196.22,515.069 197.5,516.5C 195.447,516.598 193.78,515.931 192.5,514.5 Z"/></g>
</svg>
